# xmcd CD database file
#
# Track frame offsets:
#	150
#	19824
#	36723
#
# Disc length: 627 seconds
#
# Revision: 0
# Processed by: cddbd v1.5.1PL2 Copyright (c) Steve Scherf et al.
# Submitted via: CDex 1.51
#
DISCID=23027103
DTITLE=雅−miyavi− - セニョール セニョーラ セニョリータ
DYEAR=2006
DGENRE=JPop
TTITLE0=セニョール セニョーラ セニョリータ
TTITLE1=Gigpigブギ
TTITLE2=やっぱりメグミが好き 〜独奏〜
EXTD=YEAR: 2006
EXTT0=
EXTT1=
EXTT2=
PLAYORDER=
